<svg width="24" height="24" viewBox="0 0 24 24" fill="none" xmlns="http://www.w3.org/2000/svg">
<path d="M19.3614 3.36035H4.63693C3.93277 3.36035 3.36133 3.91835 3.36133 4.60547V19.3936C3.36133 20.0816 3.93277 20.6404 4.63693 20.6404H19.3614C20.066 20.6404 20.6413 20.0816 20.6413 19.3936V4.60547C20.6413 3.91835 20.066 3.36035 19.3614 3.36035ZM8.48629 18.0853H5.92213V9.83915H8.48629V18.0853ZM7.20421 8.71163C7.00904 8.71163 6.81578 8.67317 6.63547 8.59845C6.45517 8.52374 6.29135 8.41422 6.15339 8.27617C6.01543 8.13812 5.90602 7.97423 5.83142 7.79388C5.75682 7.61353 5.71848 7.42024 5.71861 7.22507C5.71861 6.8311 5.87511 6.45326 6.15369 6.17468C6.43228 5.8961 6.81011 5.73959 7.20409 5.73959C7.59806 5.73959 7.9759 5.8961 8.25448 6.17468C8.53306 6.45326 8.68957 6.8311 8.68957 7.22507C8.68957 7.61912 8.53311 7.99705 8.25459 8.2758C7.97606 8.55455 7.59826 8.71131 7.20421 8.71163ZM18.0853 18.0853H15.5252V14.0754C15.5252 13.1188 15.5065 11.8888 14.193 11.8888C12.8591 11.8888 12.6558 12.9306 12.6558 14.006V18.0856H10.0938V9.83915H12.5526V10.9652H12.5876C12.9299 10.3172 13.766 9.63347 15.0131 9.63347C17.6065 9.63347 18.0856 11.3408 18.0856 13.562V18.0853H18.0853Z" fill="#201A1E"/>
</svg>
